<?xml version="1.0" encoding="UTF-8" standalone="no"?>
<!-- Created with Inkscape (http://www.inkscape.org/) -->

<svg
   width="300mm"
   height="300mm"
   viewBox="0 0 300 300"
   version="1.1"
   id="svg1"
   xmlns="http://www.w3.org/2000/svg"
   xmlns:svg="http://www.w3.org/2000/svg">
  <defs
     id="defs1" />
  <g
     id="layer1">
    <path
       style="fill:#ffc233;stroke-width:0.245004;fill-opacity:1"
       d="m 25.869461,268.69308 c -2.306826,-26.17705 72.325891,-51.17053 69.574101,-77.30455 -1.73787,-16.50475 -37.713367,-11.02658 -34.529369,-27.31428 2.785739,-14.25041 12.400553,-16.46557 41.541387,-25.71204 32.16692,-10.20666 42.67419,-20.23122 63.07744,-13.45559 5.0886,1.68985 7.41595,1.23792 10.59899,12.09986 3.18304,10.86194 -1.32524,37.31175 -5.64985,55.34447 -3.39905,14.1733 -2.5259,36.20005 -15.77177,40.78203 -14.6807,5.07832 -18.7771,-26.21606 -34.01401,-23.19136 -26.026018,5.16646 -42.192458,76.25549 -68.54337,79.36601 -11.057682,1.30527 -25.306124,-9.52308 -26.283549,-20.61455 z"
       id="path1" />
    <path
       style="fill:#008080;stroke-width:0.245004;fill-opacity:1"
       d="M 38.136913,238.09804 C 77.555618,197.16475 9.8795082,108.28338 49.990279,68.02801 91.448741,26.420094 180.19451,18.04128 225.7293,55.143912 c 51.29171,41.793482 34.95305,180.381458 25.76819,196.809078 -9.15066,1.67091 -132.58349,-0.32304 -139.1482,6.26718 -6.92748,6.9544 -4.33862,19.87164 2.06145,27.31428 9.77605,11.36857 137.70485,4.18432 152.54766,2.06145 C 277.67487,262.08269 323.76813,91.269545 262.83548,31.437186 205.22556,-25.132451 22.671378,29.896832 20.614548,31.95255 7.9494137,44.610839 11.856747,70.490431 8.7611833,88.127193 7.2912143,96.502234 0.95869765,234.03988 4.6382736,241.70558 9.5293928,251.8953 30.346628,246.18765 38.136913,238.09804 Z"
       id="path2" />
    <path
       id="path4"
       style="fill:#d84427;stroke-width:0.381181;fill-opacity:1"
       d="m 236.38418,104.34696 c -2.60488,7.9791 -16.56278,2.17857 -23.17579,6.87271 -6.613,4.69412 -6.50204,20.32364 -14.59722,19.93977 -8.09519,-0.38387 -7.58574,-15.98398 -14.07104,-21.29921 -6.4853,-5.31523 -20.57426,-0.84466 -22.97248,-9.06104 -2.39824,-8.216358 11.87451,-12.057225 14.47939,-20.036347 2.60487,-7.979119 -6.21355,-20.845684 0.39945,-25.539806 6.61301,-4.694123 14.92463,8.532188 23.01981,8.91606 8.09519,0.383872 16.73405,-12.038665 23.21935,-6.723429 6.48529,5.315237 -2.65061,17.33042 -0.25237,25.546785 2.39823,8.21636 16.55577,13.40537 13.9509,21.384507 z" />
  </g>
</svg>
